<!DOCTYPE svg PUBLIC "-//W3C//DTD SVG 1.1//EN" "http://www.w3.org/Graphics/SVG/1.1/DTD/svg11.dtd">
<!-- Uploaded to: SVG Repo, www.svgrepo.com, Transformed by: SVG Repo Mixer Tools -->
<svg fill="#ffffff" height="256px" width="256px" version="1.1" id="Capa_1" xmlns="http://www.w3.org/2000/svg" xmlns:xlink="http://www.w3.org/1999/xlink" viewBox="-1.8 -1.8 63.60 63.60" xml:space="preserve" stroke="#ffffff" stroke-width="0.0006000000000000001">
<g id="SVGRepo_bgCarrier" stroke-width="0"/>
<g id="SVGRepo_tracerCarrier" stroke-linecap="round" stroke-linejoin="round" stroke="#000000" stroke-width="0.12"/>
<g id="SVGRepo_iconCarrier"> <path d="M30,1.5c-16.542,0-30,12.112-30,27c0,5.205,1.647,10.246,4.768,14.604c-0.591,6.537-2.175,11.39-4.475,13.689 c-0.304,0.304-0.38,0.769-0.188,1.153C0.276,58.289,0.625,58.5,1,58.5c0.046,0,0.093-0.003,0.14-0.01 c0.405-0.057,9.813-1.412,16.617-5.338C21.622,54.711,25.738,55.5,30,55.5c16.542,0,30-12.112,30-27S46.542,1.5,30,1.5z"/> </g>
</svg>