<?xml version="1.0" encoding="utf-8"?>
<!-- Generator: Adobe Illustrator 24.3.0, SVG Export Plug-In . SVG Version: 6.00 Build 0)  -->
<svg version="1.0" id="katman_1" xmlns="http://www.w3.org/2000/svg" xmlns:xlink="http://www.w3.org/1999/xlink" x="0px" y="0px"
	 viewBox="0 0 841.89 595.28" style="enable-background:new 0 0 841.89 595.28;" xml:space="preserve">
<style type="text/css">
	.st0{fill:none;stroke:#244E9D;stroke-width:20.681;stroke-miterlimit:10;}
	.st1{fill:#244E9D;}
	.st2{fill:none;stroke:#244E9D;stroke-width:25.532;stroke-miterlimit:10;}
</style>
<path class="st0" d="M577.11,214.36c1.29,6.75,1.98,13.6,2.05,20.47c0,84.43-92.43,153.19-206.47,153.19
	c-3.06,0-5.59,0.04-8.32,0.07c36.23,41.81,89.46,64.95,144.75,62.91c17.02,0,28.51,0.68,28.51,0.68l57.87,61.19l4.09-81.53
	c43.6-16.89,73.47-57.52,76.59-104.17C670.78,272.21,630.92,226.82,577.11,214.36z"/>
<circle class="st1" cx="377.54" cy="241.22" r="33.45"/>
<circle class="st1" cx="472.86" cy="241.22" r="33.45"/>
<circle class="st1" cx="270.31" cy="241.22" r="33.45"/>
<path class="st2" d="M579.16,234.84c0,84.43-92.43,153.19-206.47,153.19c-21.27,0-35.32,0.77-35.32,0.77l-71.4,75.66l-5.02-100.68
	c-53.71-21.19-90.49-71.34-94.55-128.93c0-84.51,92.43-153.19,206.55-153.19S579.16,150.32,579.16,234.84z"/>
</svg>
